# xmcd
#
# Track frame offsets:
#	150
#	16665
#	31022
#	42317
#	55750
#	69547
#	82607
#	97647
#	110730
#	120810
#
# Disc length: 1831 seconds
#
# Revision: 1
# Processed by: cddbd v1.5.2PL0 Copyright (c) Steve Scherf et al.
# Submitted via: audiograbber 1.80.04
#
DISCID=6107250a
DTITLE=Ed Jordan en Alan Glass - Dierbare Diere
DYEAR=2005
DGENRE=
TTITLE0=Imvubu die vrolike seekoei
TTITLE1=Lukas die baie lui leeu
TTITLE2=Mafutha die olifant
TTITLE3=Zie bie die bie die
TTITLE4=Fanie die fantastiese vlakvark
TTITLE5=Alexander die klein akkedissie
TTITLE6=Saggies val die reen
TTITLE7=Pragtige diere
TTITLE8=Die naglied
TTITLE9=Afrika wiegelied
EXTD=
EXTT0=
EXTT1=
EXTT2=
EXTT3=
EXTT4=
EXTT5=
EXTT6=
EXTT7=
EXTT8=
EXTT9=
PLAYORDER=
